<svg width="32" height="32" viewBox="0 0 32 32" fill="none" xmlns="http://www.w3.org/2000/svg">
<path d="M10.7174 14.023C11.006 13.7535 11.2723 13.4586 11.5387 13.1669L17.4745 19.0044C17.7557 19.2819 18.1353 19.4369 18.5304 19.4356C18.7678 19.4356 19.002 19.3814 19.2153 19.2771L20.0429 20.0888C20.1489 20.1922 20.2911 20.2501 20.4392 20.2501C20.5873 20.2501 20.7295 20.1922 20.8356 20.0888L20.9085 20.0159C20.9604 19.9654 21.0016 19.905 21.0297 19.8383C21.0579 19.7715 21.0724 19.6999 21.0724 19.6275C21.0724 19.5551 21.0579 19.4834 21.0297 19.4167C21.0016 19.35 20.9604 19.2896 20.9085 19.239L20.0809 18.4241C20.2242 18.1468 20.2748 17.8308 20.2251 17.5226C20.1754 17.2143 20.0282 16.9302 19.805 16.7119L13.8597 10.8617C14.1768 10.5446 14.4939 10.2497 14.811 9.9707L20.7151 15.7797C21.011 16.0686 21.2382 16.4204 21.3798 16.809C21.5214 17.1976 21.5738 17.613 21.5331 18.0246L21.8185 18.3068C21.9943 18.4789 22.1339 18.6844 22.2292 18.9112C22.3245 19.138 22.3736 19.3815 22.3736 19.6275C22.3736 19.8735 22.3245 20.117 22.2292 20.3437C22.1339 20.5705 21.9943 20.776 21.8185 20.9481L21.7456 21.021C21.3948 21.3642 20.9236 21.5564 20.4329 21.5564C19.9421 21.5564 19.4709 21.3642 19.1201 21.021L18.8221 20.7262C18.7232 20.7378 18.6236 20.7431 18.524 20.742C17.7859 20.7453 17.0766 20.4557 16.5518 19.9366L10.6287 14.0991L10.7174 14.023Z" fill="black"/>
<path d="M19.0122 24.4647C19.0122 23.079 20.5818 20.5202 20.7625 20.2316C20.8206 20.1361 20.9019 20.0568 20.999 20.0014C21.0961 19.9459 21.2057 19.916 21.3174 19.9145C21.4293 19.9154 21.5391 19.945 21.6363 20.0006C21.7335 20.0561 21.8147 20.1357 21.8723 20.2316C22.0499 20.5202 23.6226 23.0854 23.6226 24.4615C23.639 24.7744 23.5916 25.0874 23.4832 25.3813C23.3747 25.6753 23.2076 25.9441 22.9919 26.1714C22.7762 26.3987 22.5166 26.5797 22.2287 26.7033C21.9408 26.827 21.6308 26.8908 21.3174 26.8908C21.0041 26.8908 20.6941 26.827 20.4062 26.7033C20.1183 26.5797 19.8586 26.3987 19.643 26.1714C19.4273 25.9441 19.2601 25.6753 19.1517 25.3813C19.0433 25.0874 18.9958 24.7744 19.0122 24.4615V24.4647ZM20.3186 24.4647C20.2989 24.6074 20.31 24.7527 20.3511 24.8908C20.3922 25.0289 20.4625 25.1565 20.5572 25.2652C20.6518 25.3738 20.7686 25.4609 20.8998 25.5206C21.0309 25.5803 21.1733 25.6112 21.3174 25.6112C21.4615 25.6112 21.6039 25.5803 21.7351 25.5206C21.8662 25.4609 21.9831 25.3738 22.0777 25.2652C22.1724 25.1565 22.2426 25.0289 22.2838 24.8908C22.3249 24.7527 22.336 24.6074 22.3162 24.4647C22.3162 23.9193 21.8184 22.819 21.3143 21.8868C20.8069 22.8158 20.3123 23.9288 20.3123 24.4647H20.3186ZM11.2057 7.98587L12.5913 9.34933L12.9084 9.05444C13.0377 8.92726 13.2122 8.85656 13.3935 8.85785C13.5922 8.86019 13.7821 8.9398 13.9231 9.07981L14.0562 9.20981C14.1249 9.27285 14.1802 9.34908 14.2188 9.43396C14.2575 9.51884 14.2786 9.61062 14.2809 9.70383C14.2833 9.79705 14.2669 9.88978 14.2326 9.97651C14.1984 10.0632 14.147 10.1422 14.0816 10.2086L10.8791 13.3604C10.7494 13.487 10.5752 13.5576 10.3939 13.557C10.2949 13.5569 10.1968 13.5373 10.1054 13.4992C10.014 13.4611 9.93102 13.4053 9.86123 13.3351L9.72806 13.2051C9.66013 13.1415 9.60552 13.0652 9.56741 12.9803C9.5293 12.8955 9.50846 12.8039 9.5061 12.711C9.50374 12.618 9.51991 12.5255 9.55366 12.4388C9.58741 12.3522 9.63807 12.2731 9.70269 12.2062L10.0039 11.9082L8.61827 10.5447C8.46228 10.3921 8.33834 10.2098 8.25373 10.0086C8.16912 9.80743 8.12554 9.59137 8.12554 9.37311C8.12554 9.15485 8.16912 8.93879 8.25373 8.7376C8.33834 8.53641 8.46228 8.35414 8.61827 8.20149L8.83705 7.98587C9.15523 7.67465 9.58262 7.50037 10.0277 7.50037C10.4728 7.50037 10.9002 7.67465 11.2183 7.98587H11.2057ZM10.0134 6.19435C9.22571 6.19163 8.46887 6.50052 7.908 7.05365L7.68921 7.26926C7.40906 7.54303 7.18645 7.87003 7.03447 8.23105C6.88249 8.59207 6.8042 8.97982 6.8042 9.37152C6.8042 9.76323 6.88249 10.151 7.03447 10.512C7.18645 10.873 7.40906 11.2 7.68921 11.4738L8.28533 12.0604C8.21794 12.2649 8.18473 12.4792 8.18703 12.6946C8.18786 12.9655 8.24237 13.2337 8.3474 13.4835C8.45244 13.7333 8.60593 13.9598 8.799 14.15L8.93218 14.28C9.3175 14.6623 9.83845 14.8766 10.3812 14.8761C10.9054 14.878 11.4091 14.6729 11.7828 14.3053L14.9853 11.1535C15.1729 10.9704 15.3218 10.7513 15.4231 10.5095C15.5245 10.2676 15.5761 10.0079 15.5751 9.74568C15.5736 9.4745 15.5186 9.20627 15.413 8.95648C15.3074 8.70669 15.1534 8.48027 14.9599 8.29027L14.8267 8.16027C14.4424 7.77844 13.9226 7.56414 13.3809 7.56415C13.1652 7.56468 12.9511 7.60002 12.7467 7.66879L12.1347 7.06633C11.5729 6.51272 10.8149 6.20382 10.0261 6.20704L10.0134 6.19435ZM14.1704 16.8737H20.195C20.2716 16.8795 20.3486 16.8694 20.4211 16.8441C20.4936 16.8187 20.5601 16.7787 20.6165 16.7264C20.6728 16.6742 20.7177 16.6109 20.7485 16.5405C20.7792 16.4701 20.7951 16.3941 20.7951 16.3172C20.7951 16.2404 20.7792 16.1644 20.7485 16.094C20.7177 16.0236 20.6728 15.9603 20.6165 15.908C20.5601 15.8558 20.4936 15.8157 20.4211 15.7904C20.3486 15.765 20.2716 15.755 20.195 15.7607H14.1704C14.0938 15.755 14.0168 15.765 13.9443 15.7904C13.8717 15.8157 13.8052 15.8558 13.7489 15.908C13.6926 15.9603 13.6476 16.0236 13.6169 16.094C13.5861 16.1644 13.5703 16.2404 13.5703 16.3172C13.5703 16.3941 13.5861 16.4701 13.6169 16.5405C13.6476 16.6109 13.6926 16.6742 13.7489 16.7264C13.8052 16.7787 13.8717 16.8187 13.9443 16.8441C14.0168 16.8694 14.0938 16.8795 14.1704 16.8737Z" fill="black"/>
<path d="M-0.0126953 16.0017C-0.0126953 7.31362 7.16606 0.242676 15.9873 0.242676C24.8085 0.242676 32.0127 7.31362 32.0127 16.0017C32.0127 24.6898 24.8339 31.7607 16.0127 31.7607C7.19143 31.7607 -0.0126953 24.6898 -0.0126953 16.0017ZM1.79468 16.0017C1.79468 23.6941 8.1617 29.9533 15.9873 29.9533C23.8129 29.9533 30.1799 23.6941 30.1799 16.0017C30.1799 8.30926 23.8129 2.05005 15.9873 2.05005C8.1617 2.05005 1.80736 8.30926 1.80736 16.0017H1.79468Z" fill="black"/>
<path d="M18.47 14.4764L27.2088 5.73765L26.2797 4.80859L17.6424 13.4459C17.9246 13.782 18.2163 14.115 18.47 14.4764ZM14.2242 16.8736L4.79419 26.3036L5.74544 27.201L15.0391 17.9041C14.7569 17.587 14.4969 17.2192 14.2242 16.8736Z" fill="black"/>
</svg>
