<svg width="25" height="30" viewBox="0 0 25 30" fill="none" xmlns="http://www.w3.org/2000/svg">
<path d="M20.9853 21.152L12.5 29.6372L4.01472 21.152C-0.671573 16.4656 -0.671573 8.86767 4.01472 4.18138C8.70101 -0.504917 16.2989 -0.504917 20.9853 4.18138C25.6716 8.86767 25.6716 16.4656 20.9853 21.152ZM12.5 18C15.4455 18 17.8333 15.6121 17.8333 12.6667C17.8333 9.72114 15.4455 7.33332 12.5 7.33332C9.55448 7.33332 7.16667 9.72114 7.16667 12.6667C7.16667 15.6121 9.55448 18 12.5 18ZM12.5 15.3333C11.0272 15.3333 9.83333 14.1395 9.83333 12.6667C9.83333 11.1939 11.0272 9.99999 12.5 9.99999C13.9728 9.99999 15.1667 11.1939 15.1667 12.6667C15.1667 14.1395 13.9728 15.3333 12.5 15.3333Z" fill="#84160A"/>
</svg>
