<svg width="28" height="29" viewBox="0 0 28 29" fill="none" xmlns="http://www.w3.org/2000/svg">
<path d="M4.33915 6.55581L0.015625 2.23229L1.90124 0.34668L6.22476 4.6702H26.5471C27.2835 4.6702 27.8804 5.26716 27.8804 6.00353C27.8804 6.13329 27.8615 6.26237 27.8243 6.38667L24.6243 17.0533C24.4551 17.6173 23.9359 18.0036 23.3471 18.0036H7.00581V20.6703H21.6725V23.3369H5.67248C4.93609 23.3369 4.33915 22.7399 4.33915 22.0036V6.55581ZM7.00581 7.33687V15.3369H22.3551L24.7551 7.33687H7.00581ZM6.33915 28.6703C5.23457 28.6703 4.33915 27.7748 4.33915 26.6703C4.33915 25.5656 5.23457 24.6703 6.33915 24.6703C7.44372 24.6703 8.33915 25.5656 8.33915 26.6703C8.33915 27.7748 7.44372 28.6703 6.33915 28.6703ZM22.3392 28.6703C21.2345 28.6703 20.3392 27.7748 20.3392 26.6703C20.3392 25.5656 21.2345 24.6703 22.3392 24.6703C23.4437 24.6703 24.3392 25.5656 24.3392 26.6703C24.3392 27.7748 23.4437 28.6703 22.3392 28.6703Z" fill="black"/>
</svg>
