<svg width="33" height="32" viewBox="0 0 33 32" fill="none" xmlns="http://www.w3.org/2000/svg">
<path d="M16.5001 31.3334C24.9684 31.3334 31.8334 24.4684 31.8334 16.0001C31.8334 7.53172 24.9684 0.666748 16.5001 0.666748C8.03172 0.666748 1.16675 7.53172 1.16675 16.0001C1.16675 24.4684 8.03172 31.3334 16.5001 31.3334Z" stroke="black" stroke-width="1.33333" stroke-miterlimit="10" stroke-linecap="round" stroke-linejoin="round"/>
<path d="M5.65869 5.15869L27.3414 26.8414M14.5 7.33336V12.6667L9.44403 21.5147C9.26219 21.8331 9.1666 22.1934 9.16669 22.56C9.16669 23.7227 10.1107 24.6667 11.2734 24.6667H21.7267C22.2854 24.6667 22.8213 24.4447 23.2163 24.0497C23.6114 23.6546 23.8334 23.1187 23.8334 22.56C23.8335 22.1934 23.7379 21.8331 23.556 21.5147L18.5 12.6667V7.33336M13.8334 7.33336H19.1667M12.2147 16.6667H20.7854" stroke="black" stroke-width="1.33333" stroke-miterlimit="10" stroke-linecap="round" stroke-linejoin="round"/>
</svg>
