<svg width="28" height="18" viewBox="0 0 28 18" fill="none" xmlns="http://www.w3.org/2000/svg">
<path d="M0.20056 8.3675C0.206402 8.34923 0.213417 8.33136 0.22156 8.314L1.78456 4.964C1.97078 4.42317 2.32123 3.954 2.78699 3.62198C3.25276 3.28996 3.81057 3.11167 4.38256 3.112H8.39656C8.33723 2.8415 8.33928 2.56115 8.40257 2.29155C8.46585 2.02195 8.58875 1.76996 8.76225 1.55411C8.93574 1.33827 9.15541 1.16405 9.40509 1.04428C9.65478 0.924507 9.92813 0.86222 10.2051 0.862H24.7101C24.8427 0.862 24.9698 0.914678 25.0636 1.00845C25.1574 1.10221 25.2101 1.22939 25.2101 1.362C25.2101 1.49461 25.1574 1.62178 25.0636 1.71555C24.9698 1.80932 24.8427 1.862 24.7101 1.862H10.2051C10.0818 1.86283 9.96027 1.89028 9.84866 1.94248C9.73705 1.99467 9.63803 2.07037 9.5584 2.16439C9.47876 2.25841 9.42039 2.36853 9.38728 2.48721C9.35417 2.6059 9.3471 2.73033 9.36656 2.852L10.9051 12.079C10.9225 12.2078 10.8891 12.3384 10.8119 12.443C10.7348 12.5476 10.6199 12.618 10.4916 12.6394C10.3634 12.6607 10.2319 12.6312 10.125 12.5572C10.0181 12.4833 9.94424 12.3705 9.91906 12.243L8.56406 4.112H4.38306C4.00614 4.1132 3.63955 4.23527 3.33715 4.46026C3.03476 4.68526 2.81251 5.00132 2.70306 5.362L1.14106 8.7095C1.05613 8.97282 1.01294 9.24782 1.01306 9.5245V12.611C1.01332 12.9557 1.15037 13.2862 1.39411 13.5299C1.63785 13.7737 1.96836 13.9107 2.31306 13.911H3.21006C3.33189 13.2838 3.66812 12.7185 4.16111 12.3121C4.6541 11.9056 5.27313 11.6833 5.91206 11.6833C6.55099 11.6833 7.17002 11.9056 7.66301 12.3121C8.156 12.7185 8.49223 13.2838 8.61406 13.911H18.0591C18.1801 13.2832 18.516 12.7171 19.009 12.3101C19.502 11.903 20.1214 11.6804 20.7608 11.6804C21.4002 11.6804 22.0196 11.903 22.5126 12.3101C23.0056 12.7171 23.3415 13.2832 23.4626 13.911H24.8101C24.9427 13.911 25.0698 13.9637 25.1636 14.0574C25.2574 14.1512 25.3101 14.2784 25.3101 14.411C25.3101 14.5436 25.2574 14.6708 25.1636 14.7646C25.0698 14.8583 24.9427 14.911 24.8101 14.911H23.4626C23.3407 15.5382 23.0045 16.1035 22.5115 16.5099C22.0185 16.9164 21.3995 17.1387 20.7606 17.1387C20.1216 17.1387 19.5026 16.9164 19.0096 16.5099C18.5166 16.1035 18.1804 15.5382 18.0586 14.911H8.61356C8.05256 17.876 3.77356 17.8815 3.21006 14.911H2.31256C1.70272 14.9105 1.11802 14.668 0.686798 14.2368C0.255579 13.8055 0.0130901 13.2208 0.0125599 12.611C0.0590591 11.7435 -0.12994 9.161 0.20056 8.3675ZM20.7606 16.16C21.2247 16.16 21.6698 15.9756 21.998 15.6474C22.3262 15.3192 22.5106 14.8741 22.5106 14.41C22.5106 13.9459 22.3262 13.5008 21.998 13.1726C21.6698 12.8444 21.2247 12.66 20.7606 12.66C20.2964 12.66 19.8513 12.8444 19.5231 13.1726C19.1949 13.5008 19.0106 13.9459 19.0106 14.41C19.0106 14.8741 19.1949 15.3192 19.5231 15.6474C19.8513 15.9756 20.2964 16.16 20.7606 16.16ZM5.91206 16.16C6.37619 16.16 6.82131 15.9756 7.1495 15.6474C7.47768 15.3192 7.66206 14.8741 7.66206 14.41C7.66206 13.9459 7.47768 13.5008 7.1495 13.1726C6.82131 12.8444 6.37619 12.66 5.91206 12.66C5.44793 12.66 5.00281 12.8444 4.67462 13.1726C4.34643 13.5008 4.16206 13.9459 4.16206 14.41C4.16206 14.8741 4.34643 15.3192 4.67462 15.6474C5.00281 15.9756 5.44793 16.16 5.91206 16.16Z" fill="black"/>
<path d="M3.40451 10.0115C3.20817 10.0092 3.01551 9.95802 2.84388 9.86265C2.67225 9.76728 2.52705 9.6307 2.42139 9.46521C2.31573 9.29971 2.25292 9.11053 2.23862 8.9147C2.22433 8.71888 2.259 8.52257 2.33951 8.34349L3.54051 5.43749C3.61876 5.27904 3.7399 5.14574 3.89017 5.05275C4.04044 4.95976 4.21379 4.91082 4.39051 4.91149H7.71201C7.84462 4.91149 7.97179 4.96417 8.06556 5.05794C8.15933 5.15171 8.21201 5.27888 8.21201 5.41149V9.51149C8.21201 9.6441 8.15933 9.77128 8.06556 9.86504C7.97179 9.95881 7.84462 10.0115 7.71201 10.0115H3.40451ZM7.21201 5.91149H4.42551L3.24801 8.75799C3.23336 8.78453 3.22603 8.81449 3.22677 8.84479C3.2275 8.8751 3.23629 8.90466 3.25221 8.93045C3.26814 8.95625 3.29063 8.97735 3.31739 8.99159C3.34415 9.00583 3.37422 9.01269 3.40451 9.01149H7.21201V5.91149ZM25.7135 4.16199L20.3135 4.19799C20.1809 4.19885 20.0534 4.147 19.959 4.05384C19.8646 3.96068 19.8111 3.83385 19.8103 3.70124C19.8094 3.56863 19.8612 3.44111 19.9544 3.34674C20.0476 3.25236 20.1744 3.19885 20.307 3.19799L25.71 3.16199C25.8426 3.16153 25.97 3.21376 26.0641 3.3072C26.1582 3.40064 26.2113 3.52763 26.2118 3.66024C26.2122 3.79285 26.16 3.92021 26.0665 4.01431C25.9731 4.1084 25.8461 4.16153 25.7135 4.16199ZM21.3075 5.89799L27.507 5.86199C27.6396 5.86126 27.7671 5.91324 27.8614 6.00649C27.9557 6.09975 28.009 6.22663 28.0098 6.35924C28.0105 6.49185 27.9585 6.61932 27.8653 6.7136C27.772 6.80788 27.6451 6.86126 27.5125 6.86199L21.3105 6.89799C21.1779 6.89839 21.0506 6.84609 20.9565 6.75261C20.8625 6.65912 20.8094 6.5321 20.809 6.39949C20.8086 6.26688 20.8609 6.13955 20.9544 6.0455C21.0479 5.95145 21.1749 5.89839 21.3075 5.89799ZM22.305 8.59749L25.71 8.56099C25.8426 8.56026 25.9701 8.61224 26.0644 8.70549C26.1587 8.79875 26.212 8.92563 26.2128 9.05824C26.2135 9.19085 26.1615 9.31832 26.0683 9.4126C25.975 9.50688 25.8481 9.56026 25.7155 9.56099L22.3105 9.59749C22.1779 9.59822 22.0504 9.54624 21.9561 9.45299C21.8619 9.35974 21.8085 9.23285 21.8078 9.10024C21.807 8.96763 21.859 8.84017 21.9523 8.74588C22.0455 8.6516 22.1724 8.59822 22.305 8.59749Z" fill="black"/>
</svg>
