<svg width="24" height="24" viewBox="0 0 24 24" fill="none" xmlns="http://www.w3.org/2000/svg">
<path d="M14.6667 21.3333H21.3333V2.66667H2.66667V21.3333H12V14.6667H9.33333V12H12V9.7944C12 8.0114 12.1856 7.36483 12.5343 6.71297C12.8829 6.06112 13.3944 5.54955 14.0463 5.20093C14.5565 4.92805 15.1896 4.76336 16.2956 4.69272C16.7347 4.66468 17.3028 4.70044 18 4.8V7.33333H17.3333C16.1103 7.33333 15.6056 7.39109 15.3039 7.55244C15.1168 7.65252 14.9859 7.78344 14.8857 7.97057C14.7244 8.27224 14.6667 8.57137 14.6667 9.7944V12H18L17.3333 14.6667H14.6667V21.3333ZM1.33333 0H22.6667C23.4031 0 24 0.59696 24 1.33333V22.6667C24 23.4031 23.4031 24 22.6667 24H1.33333C0.59696 24 0 23.4031 0 22.6667V1.33333C0 0.59696 0.59696 0 1.33333 0Z" fill="#84160A"/>
</svg>
