<svg width="28" height="28" viewBox="0 0 28 28" fill="none" xmlns="http://www.w3.org/2000/svg">
<path d="M14.0013 9.99984C11.7915 9.99984 10.0013 11.7906 10.0013 13.9998C10.0013 16.2096 11.7921 17.9998 14.0013 17.9998C16.2111 17.9998 18.0013 16.209 18.0013 13.9998C18.0013 11.7901 16.2105 9.99984 14.0013 9.99984ZM14.0013 7.33317C17.6819 7.33317 20.668 10.316 20.668 13.9998C20.668 17.6805 17.6852 20.6665 14.0013 20.6665C10.3207 20.6665 7.33464 17.6837 7.33464 13.9998C7.33464 10.3192 10.3174 7.33317 14.0013 7.33317ZM22.668 6.9987C22.668 7.91885 21.9203 8.6654 21.0013 8.6654C20.0812 8.6654 19.3347 7.9177 19.3347 6.9987C19.3347 6.0797 20.0823 5.33317 21.0013 5.33317C21.9191 5.33201 22.668 6.0797 22.668 6.9987ZM14.0013 3.33317C10.702 3.33317 10.1642 3.3419 8.62969 3.41024C7.5842 3.45932 6.88337 3.59993 6.23221 3.85273C5.65354 4.07716 5.23612 4.34514 4.79136 4.7899C4.34489 5.23637 4.07738 5.65268 3.85386 6.23161C3.60048 6.88426 3.4599 7.58398 3.4117 8.62804C3.3427 10.1001 3.33464 10.6146 3.33464 13.9998C3.33464 17.2992 3.34337 17.8369 3.41169 19.3713C3.4608 20.4164 3.6016 21.1182 3.85378 21.7678C4.0788 22.3473 4.34733 22.7657 4.78994 23.2084C5.23817 23.656 5.65572 23.9244 6.22916 24.1457C6.88825 24.4005 7.58864 24.5413 8.62949 24.5894C10.1016 24.6584 10.616 24.6665 14.0013 24.6665C17.3007 24.6665 17.8384 24.6577 19.3728 24.5894C20.4156 24.5405 21.118 24.3993 21.7693 24.1473C22.3472 23.9229 22.7669 23.6534 23.2099 23.2112C23.6581 22.7622 23.926 22.3457 24.1476 21.7709C24.4017 21.1142 24.5428 20.4129 24.5909 19.3717C24.6599 17.8996 24.668 17.385 24.668 13.9998C24.668 10.7005 24.6592 10.1628 24.5909 8.62833C24.5419 7.58525 24.4007 6.88182 24.1484 6.23074C23.9245 5.65368 23.6556 5.23497 23.2112 4.7899C22.764 4.3427 22.3488 4.07574 21.7695 3.8524C21.1173 3.59922 20.4165 3.45845 19.3731 3.41025C17.9011 3.34124 17.3865 3.33317 14.0013 3.33317ZM14.0013 0.666504C17.6235 0.666504 18.0757 0.679837 19.498 0.746504C20.9168 0.812064 21.8847 1.0365 22.7347 1.3665C23.6135 1.7054 24.3557 2.16317 25.0968 2.90428C25.8368 3.6454 26.2947 4.38984 26.6347 5.2665C26.9635 6.1154 27.188 7.08428 27.2547 8.50317C27.318 9.9254 27.3347 10.3776 27.3347 13.9998C27.3347 17.6221 27.3213 18.0742 27.2547 19.4965C27.1891 20.9154 26.9635 21.8832 26.6347 22.7332C26.2957 23.6121 25.8368 24.3542 25.0968 25.0954C24.3557 25.8354 23.6101 26.2932 22.7347 26.6332C21.8847 26.9621 20.9168 27.1865 19.498 27.2532C18.0757 27.3165 17.6235 27.3332 14.0013 27.3332C10.3791 27.3332 9.92685 27.3198 8.50464 27.2532C7.08574 27.1876 6.11908 26.9621 5.26797 26.6332C4.39018 26.2942 3.64685 25.8354 2.90574 25.0954C2.16464 24.3542 1.70797 23.6088 1.36797 22.7332C1.03797 21.8832 0.814636 20.9154 0.747969 19.4965C0.684636 18.0742 0.667969 17.6221 0.667969 13.9998C0.667969 10.3776 0.681302 9.9254 0.747969 8.50317C0.813516 7.08317 1.03797 6.1165 1.36797 5.2665C1.70685 4.38873 2.16464 3.6454 2.90574 2.90428C3.64685 2.16317 4.3913 1.7065 5.26797 1.3665C6.11797 1.0365 7.08464 0.81317 8.50464 0.746504C9.92685 0.68317 10.3791 0.666504 14.0013 0.666504Z" fill="#84160A"/>
</svg>
