<svg width="129" height="72" viewBox="0 0 129 72" fill="none" xmlns="http://www.w3.org/2000/svg">
<path d="M67.2138 10.492L67.1708 10.5026L67.1285 10.5156C34.805 20.4367 20.3619 10.4341 17.2791 5.18189L16.2794 3.47871L14.8076 4.79556C10.5615 8.59467 7.28291 14.8583 5.15272 20.042C3.15353 24.907 2.12506 30.2159 2.50449 35.5313C3.49693 49.4341 10.499 57.3489 19.0377 61.4156C27.4547 65.4244 37.2467 65.6521 44.0201 64.5658L44.0617 64.5592L44.1028 64.5504L78.0211 57.2822C96.4453 53.8553 108.155 62.3878 111.58 66.7906L112.921 68.5143L114.177 66.7285C120.417 57.8615 123.738 50.1456 125.338 44.0574C126.919 38.0381 126.843 33.5061 126.132 31.0296C122.676 17.5945 111.797 11.4646 100.081 9.20108C88.3842 6.94115 75.5096 8.43516 67.2138 10.492Z" fill="#84160A" stroke="#ECD27A" stroke-width="3.23234"/>
<path d="M72.4011 41.1213H73.2157V46.125H59.3974V45.3104L60.9974 45.1068C61.3077 45.068 61.492 44.9904 61.5501 44.8741C61.6083 44.7383 61.6374 44.3407 61.6374 43.6813V28.7867C61.6374 28.1273 61.6083 27.7394 61.5501 27.6231C61.492 27.4873 61.3077 27.4 60.9974 27.3612L59.3974 27.1576V26.3431H67.3684V27.1576L65.7683 27.3612C65.458 27.4 65.2738 27.4873 65.2156 27.6231C65.1574 27.7394 65.1283 28.1273 65.1283 28.7867V45.1068H69.8993C70.3647 45.1068 70.6944 45.0971 70.8884 45.0777C71.0823 45.0389 71.2084 44.9711 71.2666 44.8741C71.3441 44.7577 71.412 44.5832 71.4702 44.3504L72.4011 41.1213ZM72.5298 26.3431H88.5299V31.3467H87.7153L86.7844 28.1176C86.7262 27.8655 86.6583 27.6909 86.5808 27.594C86.5226 27.4776 86.3965 27.4097 86.2026 27.3903C86.0086 27.3709 85.6789 27.3612 85.2135 27.3612H82.2753V43.6813C82.2753 44.3407 82.3044 44.7383 82.3625 44.8741C82.4207 44.9904 82.605 45.068 82.9153 45.1068L84.5153 45.3104V46.125H76.5443V45.3104L78.1443 45.1068C78.4546 45.068 78.6389 44.9904 78.6971 44.8741C78.7552 44.7383 78.7843 44.3407 78.7843 43.6813V27.3612H75.8461C75.4001 27.3612 75.0704 27.3709 74.857 27.3903C74.6631 27.4097 74.537 27.4776 74.4789 27.594C74.4207 27.6909 74.3528 27.8655 74.2752 28.1176L73.3443 31.3467H72.5298V26.3431ZM90.1362 27.1576V26.3431H98.1072V27.1576L96.5072 27.3612C96.1969 27.4 96.0126 27.4873 95.9544 27.6231C95.8963 27.7394 95.8672 28.1273 95.8672 28.7867V36.6122L102.762 28.7867C103.324 28.1467 103.615 27.7588 103.634 27.6231C103.673 27.4873 103.538 27.4 103.227 27.3612L101.627 27.1576V26.3431H107.533V27.1576L105.933 27.3612C105.739 27.3806 105.584 27.4194 105.467 27.4776C105.351 27.5358 105.205 27.6619 105.031 27.8558C104.856 28.0497 104.575 28.36 104.187 28.7867L100.114 33.3831L105.147 43.6813C105.361 44.0886 105.525 44.3892 105.642 44.5832C105.758 44.7771 105.894 44.9032 106.049 44.9614C106.204 45.0195 106.418 45.068 106.689 45.1068L107.998 45.3104V46.125H102.471L97.7581 36.0595L95.8672 38.2122V43.6813C95.8672 44.3407 95.8963 44.7383 95.9544 44.8741C96.0126 44.9904 96.1969 45.068 96.5072 45.1068L98.1072 45.3104V46.125H90.1362V45.3104L91.7362 45.1068C92.0465 45.068 92.2308 44.9904 92.289 44.8741C92.3471 44.7383 92.3762 44.3407 92.3762 43.6813V28.7867C92.3762 28.1273 92.3471 27.7394 92.289 27.6231C92.2308 27.4873 92.0465 27.4 91.7362 27.3612L90.1362 27.1576Z" fill="white"/>
<path fill-rule="evenodd" clip-rule="evenodd" d="M39.6974 47.4036H27.0637C27.0026 47.4036 26.9415 47.4036 26.8803 47.3832C23.7423 46.0995 21.0525 43.9396 19.1371 41.1275C17.1606 38.2544 16.1213 34.8718 16.1213 31.367C16.1213 31.1021 16.3251 30.8983 16.59 30.8983H50.1712C50.4361 30.8983 50.6398 31.1021 50.6398 31.367C50.6398 34.8718 49.6006 38.2544 47.624 41.1275C45.7086 43.9396 43.0189 46.0995 39.8808 47.3832C39.8197 47.4036 39.7586 47.4036 39.6974 47.4036ZM29.0811 45.1418C29.0199 45.1418 28.9792 45.1418 28.918 45.1214C26.4932 44.3471 24.3332 42.8596 22.7235 40.8423C21.0933 38.7842 20.1152 36.2982 19.9114 33.6696C19.8911 33.4047 20.0948 33.1806 20.3597 33.1602C20.6043 33.1398 20.8488 33.3436 20.8692 33.5881C21.2359 38.5397 24.5166 42.6966 29.2237 44.2248C29.4682 44.3063 29.6109 44.5712 29.5293 44.8158C29.4682 45.0195 29.2644 45.1418 29.0811 45.1418ZM39.6974 49.6043H27.0637C26.7988 49.6043 26.5951 49.4006 26.5951 49.1357V48.2798C26.7377 48.341 26.9007 48.3613 27.0637 48.3613H39.6974C39.8604 48.3613 40.0235 48.341 40.1661 48.2798V49.1357C40.1661 49.4006 39.9623 49.6043 39.6974 49.6043ZM37.1096 29.9406L45.4845 22.5846C45.3826 22.4012 45.3214 22.177 45.3214 21.9529C45.3214 21.5861 45.4641 21.2193 45.729 20.9544C45.9939 20.7099 46.3607 20.5469 46.7275 20.5469C47.0942 20.5469 47.4406 20.7099 47.7055 20.9544L50.4564 23.7053C51.0066 24.2555 51.0066 25.1317 50.4564 25.6819C50.1915 25.9468 49.8451 26.0894 49.458 26.0894C49.2338 26.0894 49.03 26.0283 48.8263 25.9264L45.3011 29.9406H37.1096Z" fill="white"/>
</svg>
