<svg width="33" height="32" viewBox="0 0 33 32" fill="none" xmlns="http://www.w3.org/2000/svg">
<path d="M16.5 0C7.67756 0 0.5 7.20106 0.5 16.0524C1.30437 37.3188 31.6988 37.313 32.5 16.0522C32.5 7.20106 25.3224 0 16.5 0ZM16.5 30.2236C4.45419 30.3225 -2.08719 15.6253 5.87625 6.72394L12.55 13.4195V24.112C12.7438 29.366 20.2544 29.3581 20.45 24.1119V21.3455L25.7979 26.7109C23.3118 28.8967 20.0576 30.2236 16.5 30.2236ZM18.575 11.082H14.425V6.91839H18.575V11.082ZM18.575 12.9631V16.804L14.7466 12.9631H18.575ZM18.575 19.4643V24.112C18.575 25.2599 17.6441 26.1938 16.5 26.1938C15.3548 26.1938 14.425 25.2639 14.425 24.112V15.3007L18.575 19.4643ZM27.1238 25.3808L20.45 18.6852V6.91839C21.7347 6.94824 21.8028 5.09419 20.5166 5.03725H12.4833C11.9656 5.03725 11.5458 5.45838 11.5458 5.97782C11.5439 6.52373 12.0099 6.95162 12.5499 6.91839V10.7592L7.202 5.39379C20.7638 -5.82037 38.2969 11.7887 27.1238 25.3808Z" fill="black"/>
</svg>
