<svg width="33" height="24" viewBox="0 0 33 24" fill="none" xmlns="http://www.w3.org/2000/svg">
<path d="M32.108 16.6829C31.9964 16.4102 31.6849 16.2792 31.412 16.3909C31.281 16.4445 31.1767 16.5479 31.1219 16.6784C31.0672 16.8089 31.0665 16.9558 31.12 17.0868C32.2364 19.8167 30.2198 22.8325 27.2593 22.8325C24.9605 22.8325 23.0903 20.9624 23.0903 18.6636C23.0903 15.8993 25.7464 13.8926 28.41 14.6552C28.6379 14.7208 28.8788 14.6266 29.0046 14.4326C31.4988 10.5856 32.1006 5.91764 30.6562 1.62564C30.3482 0.71053 29.498 0.0791778 28.4939 0.100723C20.0476 0.305104 13.7117 7.50986 13.9816 15.5382C13.3565 14.5075 12.7063 13.4921 12.0318 12.493C12.0074 12.4406 11.9747 12.3927 11.9348 12.3509C10.7919 10.6676 10.3878 10.1801 10.3721 10.1273C10.0927 9.19907 10.0923 8.237 10.3705 7.3451C10.3914 7.2782 10.3989 7.20785 10.3926 7.13805C10.3862 7.06826 10.3662 7.00039 10.3337 6.93833C10.3011 6.87627 10.2567 6.82122 10.2029 6.77633C10.1491 6.73145 10.0869 6.6976 10.02 6.67673C9.73868 6.58875 9.43951 6.7459 9.35166 7.02719C9.2074 7.49075 9.12333 7.97093 9.10152 8.45592C8.09232 7.15981 7.03948 5.89827 5.94483 4.67348C5.8505 4.56797 5.71812 4.50425 5.57681 4.49635C5.43551 4.48844 5.29685 4.53699 5.19134 4.63132C5.08583 4.72565 5.02211 4.85803 5.01421 4.99933C5.0063 5.14064 5.05485 5.2793 5.14918 5.38481C6.87601 7.31602 8.50219 9.34875 10.0188 11.4676C9.15288 11.2633 8.28313 11.2964 7.45273 11.5531C7.38522 11.5733 7.32237 11.6066 7.26783 11.6512C7.21328 11.6959 7.16811 11.7509 7.13493 11.813C7.10175 11.8752 7.08121 11.9433 7.0745 12.0135C7.06779 12.0836 7.07504 12.1544 7.09583 12.2217C7.11663 12.2891 7.15055 12.3516 7.19565 12.4058C7.24075 12.4599 7.29613 12.5046 7.35859 12.5373C7.42105 12.5699 7.48936 12.5898 7.55957 12.5959C7.62977 12.602 7.70049 12.5941 7.76764 12.5728C8.9445 12.2092 10.1298 12.4457 11.1523 13.0976C12.2831 14.7717 13.344 16.492 14.3323 18.2541C14.4789 18.9 14.6716 19.5395 14.9076 20.1719C5.56201 19.8567 -0.584487 10.4872 2.28318 1.96596C2.44807 1.47616 2.89839 1.15478 3.40814 1.16759C7.29331 1.26157 10.8497 2.93691 13.422 5.88509C13.5156 5.98963 13.6467 6.05308 13.7867 6.06171C13.9268 6.07034 14.0647 6.02344 14.1704 5.93118C14.2762 5.83892 14.3413 5.70871 14.3518 5.56876C14.3622 5.42881 14.3171 5.29037 14.2262 5.18343C11.4547 2.00712 7.62196 0.20198 3.43396 0.100657C2.45581 0.0789777 1.58659 0.689785 1.27168 1.62557C-1.982 11.2937 5.45862 21.6377 15.9808 21.2375C17.0695 21.2767 18.1292 21.2042 19.1817 21.0155C19.3205 20.99 19.4436 20.9106 19.5239 20.7946C19.6043 20.6786 19.6354 20.5355 19.6105 20.3966C19.5856 20.2577 19.5067 20.1343 19.3911 20.0534C19.2755 19.9725 19.1325 19.9408 18.9935 19.965C18.1959 20.108 17.3781 20.1793 16.5531 20.1803C17.8247 17.7426 19.2331 15.3788 20.7716 13.1002C21.7924 12.4483 22.9795 12.208 24.1603 12.5728C24.4418 12.6599 24.7407 12.502 24.8276 12.2204C24.9146 11.9389 24.7568 11.64 24.4752 11.5531C23.6657 11.3029 22.7943 11.2581 21.9065 11.4681C23.4197 9.35393 25.0462 7.32323 26.7788 5.38487C26.8727 5.2793 26.9208 5.1408 26.9128 4.99976C26.9047 4.85872 26.841 4.72663 26.7357 4.63247C26.6303 4.53831 26.492 4.48976 26.3509 4.49746C26.2099 4.50516 26.0776 4.56848 25.9831 4.67354C24.8886 5.89791 23.8358 7.15891 22.8264 8.45439C22.8045 7.96993 22.7204 7.4903 22.5763 7.02726C22.5555 6.96033 22.5217 6.89817 22.4768 6.84433C22.4319 6.79049 22.3768 6.74602 22.3148 6.71347C22.2527 6.68093 22.1848 6.66093 22.115 6.65464C22.0452 6.64834 21.9748 6.65587 21.9079 6.67679C21.841 6.69767 21.7789 6.73151 21.7251 6.7764C21.6713 6.82129 21.6268 6.87633 21.5943 6.9384C21.5617 7.00046 21.5417 7.06833 21.5354 7.13812C21.5291 7.20792 21.5366 7.27827 21.5575 7.34517C21.8512 8.28703 21.8203 9.18053 21.5535 10.1367C19.3974 13.0747 17.4613 16.168 15.7612 19.3914C15.4415 18.447 15.3865 18.0588 15.3531 17.9243C13.4239 10.1525 19.5281 1.38511 28.5198 1.16759C29.0292 1.15264 29.4799 1.47609 29.6447 1.96596C30.9451 5.82985 30.456 10.024 28.3095 13.5333C25.0442 12.8685 22.0231 15.3758 22.0231 18.6635C22.0231 21.5508 24.3721 23.8997 27.2594 23.8997C30.9805 23.8997 33.5096 20.1109 32.108 16.6829Z" fill="black"/>
<path d="M28.8164 17.4856L26.7924 19.5097L26.1358 18.8531C26.0358 18.753 25.9 18.6968 25.7585 18.6968C25.617 18.6968 25.4812 18.753 25.3812 18.8531C25.2811 18.9532 25.2249 19.0889 25.2249 19.2304C25.2249 19.372 25.2811 19.5077 25.3812 19.6078L26.4151 20.6417C26.5152 20.7417 26.6509 20.7979 26.7924 20.7979C26.9339 20.7979 27.0697 20.7417 27.1698 20.6417L29.5711 18.2403C29.6712 18.1403 29.7274 18.0045 29.7274 17.863C29.7274 17.7215 29.6712 17.5857 29.5711 17.4856C29.471 17.3856 29.3353 17.3293 29.1937 17.3293C29.0522 17.3293 28.9165 17.3856 28.8164 17.4856Z" fill="black"/>
</svg>
