<svg width="22" height="29" viewBox="0 0 22 29" fill="none" xmlns="http://www.w3.org/2000/svg">
<path d="M0.333252 28.3334C0.333252 22.4423 5.10888 17.6667 10.9999 17.6667C16.891 17.6667 21.6666 22.4423 21.6666 28.3334H18.9999C18.9999 23.9151 15.4182 20.3334 10.9999 20.3334C6.58164 20.3334 2.99992 23.9151 2.99992 28.3334H0.333252ZM10.9999 16.3334C6.57992 16.3334 2.99992 12.7534 2.99992 8.33337C2.99992 3.91337 6.57992 0.333374 10.9999 0.333374C15.4199 0.333374 18.9999 3.91337 18.9999 8.33337C18.9999 12.7534 15.4199 16.3334 10.9999 16.3334ZM10.9999 13.6667C13.9466 13.6667 16.3333 11.28 16.3333 8.33337C16.3333 5.38671 13.9466 3.00004 10.9999 3.00004C8.05325 3.00004 5.66659 5.38671 5.66659 8.33337C5.66659 11.28 8.05325 13.6667 10.9999 13.6667Z" fill="black"/>
</svg>
