<svg width="28" height="28" viewBox="0 0 28 28" fill="none" xmlns="http://www.w3.org/2000/svg">
<path d="M22.0414 20.1557L27.7517 25.866L25.8661 27.7516L20.1558 22.0413C18.1026 23.684 15.4987 24.6666 12.6667 24.6666C6.04275 24.6666 0.666748 19.2906 0.666748 12.6666C0.666748 6.04263 6.04275 0.666626 12.6667 0.666626C19.2907 0.666626 24.6667 6.04263 24.6667 12.6666C24.6667 15.4986 23.6841 18.1025 22.0414 20.1557ZM19.3663 19.1664C20.9967 17.4861 22.0001 15.1941 22.0001 12.6666C22.0001 7.50996 17.8234 3.33329 12.6667 3.33329C7.51008 3.33329 3.33341 7.50996 3.33341 12.6666C3.33341 17.8233 7.51008 22 12.6667 22C15.1942 22 17.4862 20.9966 19.1665 19.3662L19.3663 19.1664Z" fill="black"/>
</svg>
