<svg width="30" height="24" viewBox="0 0 30 24" fill="none" xmlns="http://www.w3.org/2000/svg">
<path d="M2.33325 16.3867V21.3333C2.33325 22.4333 3.23325 23.3333 4.33325 23.3333C5.43325 23.3333 6.33325 22.4333 6.33325 21.3333V16.6667C9.95992 16.6667 13.4266 18.2133 15.8533 20.9067L17.4266 22.6533C18.6266 24.04 21.0399 23.1267 20.9999 21.28V2.71334C21.0333 0.873343 18.6333 -0.0533232 17.4266 1.34001L15.8533 3.08668C14.6526 4.42213 13.1847 5.49029 11.5446 6.22188C9.90458 6.95347 8.12907 7.33214 6.33325 7.33334H3.66659C1.82659 7.33334 0.333252 8.82668 0.333252 10.6667V13.3333C0.333252 14.7 1.15992 15.8667 2.33325 16.3867ZM4.99992 21.3333C4.99325 22.2067 3.67325 22.2067 3.66659 21.3333V16.6667H4.99992V21.3333ZM16.8399 3.98668L18.4133 2.24001C18.8266 1.75334 19.6866 2.08001 19.6599 2.72001V21.2867C19.6799 21.9267 18.8266 22.2533 18.4066 21.7667L16.8333 20.02C15.5815 18.6321 14.0678 17.5053 12.3791 16.7045C10.6904 15.9036 8.86002 15.4444 6.99325 15.3533V8.65334C10.7599 8.47334 14.3133 6.79334 16.8399 3.98668ZM1.66659 10.6667C1.66659 9.56668 2.56659 8.66668 3.66659 8.66668H5.66659V15.3333H3.66659C2.56659 15.3333 1.66659 14.4333 1.66659 13.3333V10.6667ZM24.3333 12C24.3333 12.3667 24.6333 12.6667 24.9999 12.6667H28.9999C29.3666 12.6667 29.6666 12.3667 29.6666 12C29.6666 11.6333 29.3666 11.3333 28.9999 11.3333H24.9999C24.6333 11.3333 24.3333 11.6333 24.3333 12ZM25.8599 19.8067C26.4799 20.42 27.4199 19.48 26.7999 18.8667L24.7999 16.8667C24.7382 16.805 24.6649 16.756 24.5843 16.7226C24.5036 16.6892 24.4172 16.672 24.3299 16.672C24.2426 16.672 24.1562 16.6892 24.0756 16.7226C23.9949 16.756 23.9216 16.805 23.8599 16.8667C23.7982 16.9284 23.7492 17.0017 23.7158 17.0823C23.6824 17.163 23.6652 17.2494 23.6652 17.3367C23.6652 17.424 23.6824 17.5104 23.7158 17.591C23.7492 17.6717 23.7982 17.745 23.8599 17.8067L25.8599 19.8067ZM25.8599 4.19334C26.4799 3.58001 27.4199 4.52001 26.7999 5.13334L24.7999 7.13334C24.7382 7.19507 24.6649 7.24402 24.5843 7.27743C24.5036 7.31083 24.4172 7.32802 24.3299 7.32802C24.2426 7.32802 24.1562 7.31083 24.0756 7.27743C23.9949 7.24402 23.9216 7.19507 23.8599 7.13334C23.7982 7.07162 23.7492 6.99835 23.7158 6.91771C23.6824 6.83706 23.6652 6.75063 23.6652 6.66334C23.6652 6.57606 23.6824 6.48962 23.7158 6.40898C23.7492 6.32834 23.7982 6.25506 23.8599 6.19334L25.8599 4.19334Z" fill="black"/>
</svg>
