<svg width="32" height="32" viewBox="0 0 32 32" fill="none" xmlns="http://www.w3.org/2000/svg">
<path d="M31.4666 28.8H29.8666V18.6666C29.8665 18.5533 29.8303 18.4429 29.7632 18.3515C29.6961 18.2601 29.6016 18.1924 29.4935 18.1584C29.3854 18.1243 29.2692 18.1256 29.1618 18.162C29.0545 18.1985 28.9615 18.2682 28.8965 18.361L21.4298 29.0277C21.3739 29.1076 21.341 29.2013 21.3346 29.2986C21.3283 29.396 21.3487 29.4931 21.3938 29.5796C21.4388 29.6661 21.5067 29.7386 21.5901 29.7892C21.6734 29.8398 21.7691 29.8666 21.8666 29.8666H28.7999V31.4666C28.7999 31.6081 28.8561 31.7437 28.9561 31.8438C29.0562 31.9438 29.1918 32 29.3333 32C29.4747 32 29.6104 31.9438 29.7104 31.8438C29.8104 31.7437 29.8666 31.6081 29.8666 31.4666V29.8666H31.4666C31.608 29.8666 31.7437 29.8104 31.8437 29.7104C31.9437 29.6104 31.9999 29.4748 31.9999 29.3333C31.9999 29.1919 31.9437 29.0562 31.8437 28.9562C31.7437 28.8562 31.608 28.8 31.4666 28.8ZM28.7999 28.8H22.8906L28.7999 20.3584V28.8Z" fill="black"/>
<path d="M21.8667 30.9333H15.5526L21.423 24.0208C21.4363 24.0049 21.4488 23.9884 21.4603 23.9712C22.5647 22.3366 22.1968 20.1236 20.623 18.9344C18.7093 17.5594 16.0433 17.9961 14.6684 19.9098C14.147 20.6354 13.8666 21.5064 13.8667 22.4C13.8667 22.5414 13.9229 22.6771 14.0229 22.7771C14.1229 22.8771 14.2586 22.9333 14.4 22.9333C14.5415 22.9333 14.6771 22.8771 14.7772 22.7771C14.8772 22.6771 14.9334 22.5414 14.9334 22.4C14.9332 20.6326 16.3658 19.1998 18.133 19.1996C18.8029 19.1996 19.4559 19.4097 20 19.8005C21.1025 20.6452 21.3592 22.201 20.5867 23.3552L13.9936 31.1216C13.9278 31.1992 13.8855 31.294 13.8718 31.3948C13.8581 31.4956 13.8735 31.5982 13.9163 31.6906C13.959 31.7829 14.0272 31.8611 14.1129 31.9159C14.1987 31.9708 14.2983 31.9999 14.4 32H21.8667C22.0081 32 22.1438 31.9438 22.2438 31.8438C22.3438 31.7437 22.4 31.6081 22.4 31.4666C22.4 31.3252 22.3438 31.1895 22.2438 31.0895C22.1438 30.9895 22.0081 30.9333 21.8667 30.9333Z" fill="black"/>
<path d="M14.4117 28.2768C14.4144 28.2068 14.4032 28.137 14.3789 28.0713C14.3545 28.0056 14.3175 27.9454 14.2698 27.894C14.2222 27.8427 14.1649 27.8012 14.1013 27.772C14.0376 27.7428 13.9689 27.7264 13.8989 27.7237H13.8987C6.94067 27.4655 1.35607 21.8909 1.08533 14.9333H3.2C3.34145 14.9333 3.4771 14.8771 3.57712 14.7771C3.67714 14.6771 3.73333 14.5414 3.73333 14.4C3.73333 14.2586 3.67714 14.1229 3.57712 14.0229C3.4771 13.9229 3.34145 13.8667 3.2 13.8667H1.08533C1.3522 6.9214 6.92133 1.35247 13.8667 1.08587V2.66667C13.8667 2.80812 13.9229 2.94377 14.0229 3.04379C14.1229 3.14381 14.2586 3.2 14.4 3.2C14.5414 3.2 14.6771 3.14381 14.7771 3.04379C14.8771 2.94377 14.9333 2.80812 14.9333 2.66667V1.08587C21.7836 1.3508 27.3124 6.7752 27.7077 13.6192L25.6277 11.5392C25.5271 11.442 25.3924 11.3883 25.2526 11.3895C25.1127 11.3907 24.979 11.4468 24.8801 11.5457C24.7812 11.6446 24.7251 11.7783 24.7239 11.9182C24.7227 12.058 24.7765 12.1927 24.8736 12.2933L27.8507 15.2704C27.9067 15.3383 27.979 15.3909 28.0608 15.4235C28.0817 15.4297 28.1029 15.4349 28.1243 15.4389C28.1608 15.4521 28.1988 15.4613 28.2373 15.4661H28.2677C28.3083 15.4631 28.3485 15.4552 28.3872 15.4427C28.4091 15.44 28.4309 15.4359 28.4523 15.4304C28.5245 15.4047 28.5902 15.3636 28.6448 15.3099L31.6624 12.2933C31.7596 12.1927 31.8133 12.058 31.8121 11.9182C31.8109 11.7783 31.7548 11.6446 31.6559 11.5457C31.557 11.4468 31.4233 11.3907 31.2834 11.3895C31.1436 11.3883 31.0089 11.442 30.9083 11.5392L28.7765 13.6693C28.3955 6.02467 22.092 0.0187333 14.4379 0.00746667C14.4245 0.00693333 14.4133 0 14.4 0C14.3867 0 14.3755 0.00693333 14.3621 0.00746667C6.4388 0.0183333 0.0183333 6.4388 0.00746667 14.3621C0.00746667 14.3755 0 14.3867 0 14.4C0 14.4133 0.00693333 14.4245 0.00746667 14.4379C0.0207333 22.1657 6.13673 28.5025 13.8592 28.7899H13.8789C14.0168 28.7898 14.1494 28.7364 14.2487 28.6407C14.3481 28.545 14.4065 28.4146 14.4117 28.2768Z" fill="black"/>
<path d="M21.5654 7.23464C21.4654 7.13466 21.3297 7.07849 21.1883 7.07849C21.0469 7.07849 20.9112 7.13466 20.8112 7.23464L15.08 12.9653C14.8659 12.8698 14.6342 12.8205 14.3998 12.8205C14.1654 12.8205 13.9336 12.8698 13.7195 12.9653L11.0059 10.2517C10.9053 10.1546 10.7706 10.1008 10.6307 10.102C10.4909 10.1032 10.3571 10.1593 10.2583 10.2582C10.1594 10.3571 10.1033 10.4909 10.1021 10.6307C10.1009 10.7705 10.1546 10.9053 10.2518 11.0058L12.96 13.7141C12.5798 14.5101 12.9168 15.4637 13.7129 15.8439C14.0111 15.9863 14.346 16.0328 14.6717 15.9769C14.9974 15.921 15.2977 15.7654 15.5312 15.5317C15.766 15.299 15.9219 14.9986 15.9772 14.6727C16.0325 14.3468 15.9843 14.0118 15.8395 13.7146L21.5654 7.98878C21.6653 7.88876 21.7215 7.75313 21.7215 7.61171C21.7215 7.47029 21.6653 7.33466 21.5654 7.23464ZM14.7772 14.7769L14.7771 14.777C14.6756 14.8741 14.5405 14.9283 14.4 14.9283C14.2596 14.9283 14.1245 14.8741 14.023 14.777C13.9484 14.7025 13.8976 14.6074 13.877 14.504C13.8564 14.4005 13.8669 14.2933 13.9073 14.1958C13.9476 14.0984 14.016 14.0151 14.1037 13.9565C14.1913 13.8978 14.2945 13.8665 14.3999 13.8665C14.5054 13.8665 14.6085 13.8978 14.6963 13.9564C14.784 14.0149 14.8523 14.0982 14.8927 14.1957C14.9331 14.2931 14.9437 14.4004 14.9231 14.5038C14.9026 14.6073 14.8518 14.7023 14.7772 14.7769Z" fill="black"/>
</svg>
